<svg width="145" height="42" viewBox="0 0 145 42" fill="none" xmlns="http://www.w3.org/2000/svg">
<path fill-rule="evenodd" clip-rule="evenodd" d="M23.778 25.5608C26.0689 23.6428 26.3699 20.2322 24.4503 17.9432L24.207 17.6531L28.1026 14.3916L28.3458 14.6817C32.0683 19.1204 31.4846 25.7339 27.0422 29.4532L23.778 25.5608Z" fill="url(#paint0_linear_643_49)"/>
<path fill-rule="evenodd" clip-rule="evenodd" d="M16.7766 23.8723L17.0198 24.1624L13.1243 27.4239L12.881 27.1338C9.15856 22.6951 9.74221 16.0817 14.1846 12.3623L17.4489 16.2547C15.1579 18.1728 14.8569 21.5833 16.7766 23.8723Z" fill="url(#paint1_linear_643_49)"/>
<path d="M12.3985 10.5145L22.3584 8.84078L18.8443 18.2007L12.3985 10.5145ZM18.8867 32.9763L22.4008 23.6164L28.8466 31.3025L18.8867 32.9763Z" fill="#7F38E9"/>
<path d="M41.9907 23.075H45.3817C45.4487 23.6444 45.7082 24.1635 46.1603 24.6324C46.6292 25.0845 47.2404 25.4445 47.994 25.7124C48.7475 25.9636 49.5931 26.0892 50.5309 26.0892C51.3849 26.0892 52.0882 25.9971 52.6408 25.8129C53.1934 25.6287 53.6037 25.3692 53.8716 25.0342C54.1395 24.6993 54.2735 24.2974 54.2735 23.8286C54.2735 23.3765 54.106 23.0332 53.7711 22.7987C53.4362 22.5476 52.9087 22.3466 52.1887 22.1959C51.4686 22.0284 50.5225 21.861 49.3503 21.6935C48.4293 21.5596 47.5586 21.3754 46.7381 21.1409C45.9175 20.8898 45.1891 20.5716 44.5528 20.1865C43.9332 19.8013 43.4392 19.3324 43.0708 18.7798C42.7192 18.2105 42.5433 17.5407 42.5433 16.7704C42.5433 15.8159 42.8113 14.9786 43.3471 14.2586C43.8997 13.5385 44.7119 12.9776 45.7836 12.5757C46.8553 12.1738 48.1698 11.9728 49.7271 11.9728C52.0715 11.9728 53.8716 12.4752 55.1275 13.4799C56.4002 14.4679 57.0197 15.8326 56.9862 17.5742H53.7209C53.6539 16.5862 53.2353 15.8745 52.465 15.4391C51.7114 15.0037 50.757 14.7861 49.6015 14.7861C48.5298 14.7861 47.6423 14.9451 46.939 15.2633C46.2524 15.5815 45.9092 16.1257 45.9092 16.896C45.9092 17.1974 45.9929 17.4653 46.1603 17.6998C46.3278 17.9174 46.6125 18.11 47.0144 18.2775C47.4162 18.4449 47.9605 18.604 48.647 18.7547C49.3336 18.9054 50.1876 19.0561 51.2091 19.2068C52.1636 19.3408 53.026 19.525 53.7962 19.7594C54.5833 19.9771 55.2531 20.2702 55.8057 20.6386C56.375 20.9902 56.8104 21.4424 57.1118 21.995C57.4133 22.5476 57.564 23.2257 57.564 24.0295C57.564 25.0175 57.3044 25.8799 56.7853 26.6167C56.2829 27.3367 55.4959 27.8977 54.4242 28.2996C53.3692 28.7015 51.9961 28.9024 50.3048 28.9024C49.0992 28.9024 48.0358 28.7768 47.1148 28.5257C46.1938 28.2577 45.3984 27.9061 44.7286 27.4707C44.0588 27.0353 43.5146 26.5581 43.0959 26.039C42.6773 25.5199 42.3759 25.0008 42.1917 24.4816C42.0242 23.9625 41.9572 23.4937 41.9907 23.075ZM63.2042 25.0091V22.221H73.9547V25.0091H63.2042ZM59.1601 28.5508L66.796 12.2994H70.4131L78.1243 28.5508H74.4822L67.8008 13.9069H69.4083L62.7771 28.5508H59.1601ZM80.8638 28.5508V12.2994H91.8906C93.1465 12.2994 94.235 12.4752 95.156 12.8268C96.0937 13.1618 96.8221 13.6976 97.3412 14.4344C97.8603 15.1545 98.1199 16.0838 98.1199 17.2225C98.1199 17.9928 97.9859 18.6459 97.718 19.1817C97.4501 19.7176 97.0733 20.153 96.5877 20.4879C96.1188 20.8228 95.5746 21.0823 94.955 21.2665C94.3354 21.434 93.674 21.5428 92.9707 21.5931L92.619 21.3921C93.7912 21.4089 94.7541 21.5093 95.5076 21.6935C96.2612 21.861 96.8221 22.1792 97.1905 22.648C97.5757 23.1002 97.7682 23.7783 97.7682 24.6826V28.5508H94.4275V24.9087C94.4275 24.2891 94.3187 23.8118 94.101 23.4769C93.8833 23.1253 93.4898 22.8825 92.9204 22.7485C92.3679 22.6145 91.5641 22.5476 90.5091 22.5476H84.2045V28.5508H80.8638ZM84.2045 19.9353H91.8906C92.8283 19.9353 93.54 19.7092 94.0256 19.2571C94.528 18.805 94.7792 18.1937 94.7792 17.4235C94.7792 16.6867 94.528 16.1257 94.0256 15.7405C93.54 15.3554 92.8283 15.1628 91.8906 15.1628H84.2045V19.9353ZM104.529 25.0091V22.221H115.28V25.0091H104.529ZM100.485 28.5508L108.121 12.2994H111.738L119.449 28.5508H115.807L109.126 13.9069H110.734L104.102 28.5508H100.485ZM125.53 12.2994V25.7627H136.33V28.5508H122.189V12.2994H125.53Z" fill="#7F38E9"/>
<defs>
<linearGradient id="paint0_linear_643_49" x1="25.581" y1="27.0131" x2="32.0228" y2="21.2988" gradientUnits="userSpaceOnUse">
<stop stop-color="#7357E9"/>
<stop offset="1" stop-color="#5735E4"/>
</linearGradient>
<linearGradient id="paint1_linear_643_49" x1="15.6458" y1="14.8024" x2="9.20407" y2="20.5167" gradientUnits="userSpaceOnUse">
<stop stop-color="#7357E9"/>
<stop offset="1" stop-color="#5735E4"/>
</linearGradient>
</defs>
</svg>
