<svg width="85" height="26" viewBox="0 0 85 26" fill="none" xmlns="http://www.w3.org/2000/svg">
<path fill-rule="evenodd" clip-rule="evenodd" d="M14.5944 15.6878C16.0006 14.5105 16.1853 12.4172 15.007 11.0121L14.8578 10.8341L17.2488 8.83224L17.3981 9.01027C19.6829 11.7347 19.3247 15.794 16.598 18.0769L14.5944 15.6878Z" fill="white"/>
<path fill-rule="evenodd" clip-rule="evenodd" d="M10.2968 14.6529L10.4461 14.8309L8.05501 16.8328L7.90571 16.6547C5.6209 13.9303 5.97914 9.87099 8.70586 7.5881L10.7094 9.9772C9.30326 11.1545 9.11852 13.2478 10.2968 14.6529Z" fill="white"/>
<path d="M7.61083 6.45305L13.7245 5.42546L11.5673 11.1709L7.61083 6.45305ZM11.5935 20.2401L13.7507 14.4947L17.7072 19.2125L11.5935 20.2401Z" fill="white"/>
<path d="M25.7742 14.7543H27.8555C27.8966 15.1037 28.056 15.4223 28.3335 15.7101C28.6213 15.9876 28.9964 16.2086 29.4589 16.3731C29.9214 16.5273 30.4405 16.6043 31.0161 16.6043C31.5403 16.6043 31.972 16.5478 32.3111 16.4347C32.6503 16.3217 32.9021 16.1624 33.0666 15.9568C33.231 15.7512 33.3133 15.5046 33.3133 15.2168C33.3133 14.9393 33.2105 14.7286 33.0049 14.5847C32.7993 14.4305 32.4756 14.3072 32.0336 14.2147C31.5917 14.1119 31.0109 14.0091 30.2915 13.9063C29.7262 13.8241 29.1917 13.711 28.6881 13.5671C28.1844 13.413 27.7373 13.2177 27.3468 12.9813C26.9665 12.7449 26.6633 12.4571 26.4371 12.1179C26.2213 11.7684 26.1134 11.3573 26.1134 10.8845C26.1134 10.2987 26.2778 9.78474 26.6067 9.34278C26.9459 8.90081 27.4444 8.55649 28.1022 8.30982C28.76 8.06314 29.5669 7.9398 30.5227 7.9398C31.9617 7.9398 33.0666 8.24815 33.8374 8.86484C34.6186 9.47126 34.9989 10.3089 34.9783 11.3779H32.9741C32.933 10.7715 32.676 10.3346 32.2032 10.0674C31.7407 9.80016 31.1548 9.66654 30.4456 9.66654C29.7878 9.66654 29.2431 9.76418 28.8114 9.95947C28.39 10.1548 28.1793 10.4888 28.1793 10.9616C28.1793 11.1466 28.2307 11.3111 28.3335 11.455C28.4362 11.5886 28.611 11.7068 28.8577 11.8095C29.1043 11.9123 29.4384 12.01 29.8598 12.1025C30.2812 12.195 30.8054 12.2875 31.4323 12.38C32.0182 12.4622 32.5475 12.5753 33.0203 12.7192C33.5034 12.8528 33.9145 13.0327 34.2537 13.2588C34.6032 13.4746 34.8704 13.7521 35.0554 14.0913C35.2404 14.4305 35.3329 14.8468 35.3329 15.3401C35.3329 15.9465 35.1736 16.4759 34.855 16.9281C34.5466 17.3701 34.0636 17.7144 33.4058 17.9611C32.7582 18.2077 31.9154 18.3311 30.8773 18.3311C30.1373 18.3311 29.4846 18.254 28.9193 18.0998C28.354 17.9354 27.8658 17.7195 27.4547 17.4523C27.0435 17.1851 26.7095 16.8921 26.4526 16.5735C26.1956 16.2549 26.0106 15.9363 25.8975 15.6176C25.7947 15.299 25.7536 15.0112 25.7742 14.7543ZM38.7948 15.9414V14.2301H45.3935V15.9414H38.7948ZM36.3127 18.1152L40.9995 8.14023H43.2196L47.9527 18.1152H45.7172L41.6162 9.12694H42.6029L38.5327 18.1152H36.3127ZM49.6342 18.1152V8.14023H56.4024C57.1733 8.14023 57.8413 8.24815 58.4066 8.46399C58.9822 8.66956 59.4293 8.99846 59.7479 9.4507C60.0666 9.89266 60.2259 10.4631 60.2259 11.162C60.2259 11.6348 60.1437 12.0357 59.9792 12.3646C59.8148 12.6935 59.5835 12.9607 59.2854 13.1663C58.9976 13.3718 58.6636 13.5312 58.2833 13.6442C57.903 13.747 57.497 13.8138 57.0653 13.8446L56.8495 13.7213C57.569 13.7316 58.16 13.7932 58.6225 13.9063C59.085 14.0091 59.4293 14.2044 59.6554 14.4922C59.8918 14.7697 60.01 15.1859 60.01 15.741V18.1152H57.9595V15.8797C57.9595 15.4994 57.8927 15.2065 57.7591 15.0009C57.6255 14.7851 57.384 14.6361 57.0345 14.5538C56.6953 14.4716 56.202 14.4305 55.5544 14.4305H51.6847V18.1152H49.6342ZM51.6847 12.8271H56.4024C56.978 12.8271 57.4148 12.6883 57.7129 12.4108C58.0212 12.1333 58.1754 11.7582 58.1754 11.2854C58.1754 10.8331 58.0212 10.4888 57.7129 10.2524C57.4148 10.016 56.978 9.8978 56.4024 9.8978H51.6847V12.8271ZM64.1599 15.9414V14.2301H70.7586V15.9414H64.1599ZM61.6778 18.1152L66.3646 8.14023H68.5847L73.3178 18.1152H71.0823L66.9813 9.12694H67.968L63.8979 18.1152H61.6778ZM77.0498 8.14023V16.4039H83.6792V18.1152H74.9993V8.14023H77.0498Z" fill="white"/>
</svg>
